HIERARCHY
ROOT Hips
{
 OFFSET 0.000000 0.000000 0.000000
 CHANNELS 6 Xposition Yposition Zposition Yrotation Xrotation Zrotation
 JOINT Chest
 {
  OFFSET 0.000000 9.588913 -0.003946
  CHANNELS 3 Yrotation Xrotation Zrotation
  JOINT Chest2
  {
   OFFSET 0.000000 9.541882 0.008053
   CHANNELS 3 Yrotation Xrotation Zrotation
   JOINT Chest3
   {
    OFFSET 0.000000 9.501360 0.000000
    CHANNELS 3 Yrotation Xrotation Zrotation
    JOINT Chest4
    {
     OFFSET 0.000000 9.491660 0.000000
     CHANNELS 3 Yrotation Xrotation Zrotation
     JOINT Neck
     {
      OFFSET 0.000000 14.331917 0.000000
      CHANNELS 3 Yrotation Xrotation Zrotation
      JOINT Head
      {
       OFFSET 0.000000 8.884799 0.017034
       CHANNELS 3 Yrotation Xrotation Zrotation
       End Site
       {
        OFFSET 0.000000 16.896195 0.008993
       }
      }
     }
     JOINT RightCollar
     {
      OFFSET -2.923010 9.499495 0.000000
      CHANNELS 3 Yrotation Xrotation Zrotation
      JOINT RightShoulder
      {
       OFFSET -13.795216 0.000000 0.000000
       CHANNELS 3 Yrotation Xrotation Zrotation
       JOINT RightElbow
       {
        OFFSET -30.272209 0.000000 0.000000
        CHANNELS 3 Yrotation Xrotation Zrotation
        JOINT RightWrist
        {
         OFFSET -24.478199 0.000000 0.000000
         CHANNELS 3 Yrotation Xrotation Zrotation
         End Site
         {
          OFFSET -18.090752 0.000000 0.000000
         }
        }
       }
      }
     }
     JOINT LeftCollar
     {
      OFFSET 2.923010 9.499495 0.000000
      CHANNELS 3 Yrotation Xrotation Zrotation
      JOINT LeftShoulder
      {
       OFFSET 13.795216 0.000000 0.000000
       CHANNELS 3 Yrotation Xrotation Zrotation
       JOINT LeftElbow
       {
        OFFSET 30.272209 0.000000 0.000000
        CHANNELS 3 Yrotation Xrotation Zrotation
        JOINT LeftWrist
        {
         OFFSET 24.478199 0.000000 0.000000
         CHANNELS 3 Yrotation Xrotation Zrotation
         End Site
         {
          OFFSET 18.090752 0.000000 0.000000
         }
        }
       }
      }
     }
    }
   }
  }
 }
 JOINT RightHip
 {
  OFFSET -7.826875 0.019532 0.001973
  CHANNELS 3 Yrotation Xrotation Zrotation
  JOINT RightKnee
  {
   OFFSET 0.000000 -40.546152 -0.001885
   CHANNELS 3 Yrotation Xrotation Zrotation
   JOINT RightAnkle
   {
    OFFSET 0.000000 -39.417092 -0.003189
    CHANNELS 3 Yrotation Xrotation Zrotation
    JOINT RightToe
    {
     OFFSET 0.000000 -7.579396 17.243563
     CHANNELS 3 Yrotation Xrotation Zrotation
     End Site
     {
      OFFSET 0.000000 -1.500329 6.694466
     }
    }
   }
  }
 }
 JOINT LeftHip
 {
  OFFSET 7.826875 0.019532 0.001973
  CHANNELS 3 Yrotation Xrotation Zrotation
  JOINT LeftKnee
  {
   OFFSET 0.000000 -40.546152 -0.001885
   CHANNELS 3 Yrotation Xrotation Zrotation
   JOINT LeftAnkle
   {
    OFFSET 0.000000 -39.417092 -0.003189
    CHANNELS 3 Yrotation Xrotation Zrotation
    JOINT LeftToe
    {
     OFFSET 0.000000 -7.579396 17.243563
     CHANNELS 3 Yrotation Xrotation Zrotation
     End Site
     {
      OFFSET 0.000000 -1.500329 6.694466
     }
    }
   }
  }
 }
}
MOTION
Frames: 7
Frame Time: 0.008333
0.000000 87.345680 0.000000 0.000000 -5.767889 0.000000 0.000000 11.653876 0.000000 0.000000 -5.885988 0.000000 0.000000 -0.000000 0.000000 0.000000 -0.000000 0.000000 0.000000 12.528808 0.000000 0.000000 0.711711 0.000000 0.000000 -0.000000 0.000000 0.000000 -0.000000 0.000000 2.309063 -0.000000 0.000000 -2.309063 -0.000000 -0.000000 0.000000 -0.000000 0.000000 0.000000 0.000000 0.000000 -2.309063 0.000000 0.000000 2.309063 -0.000000 0.000000 0.000000 8.520374 0.000000 0.000000 1.905768 0.000000 -0.000000 -4.658254 0.000000 0.000000 -0.000000 0.000000 0.000000 8.520374 0.000000 0.000000 1.905768 0.000000 -0.000000 -4.658254 0.000000 0.000000 -0.000000 0.000000
-20.178709 51.282637 -15.308812 51.303278 -30.829806 -1.127994 -5.825547 14.964945 -0.393252 -3.304384 8.575116 0.188749 -4.137720 10.719476 0.157989 -3.304384 8.575116 0.188749 0.163203 18.801635 -2.345691 0.707175 -5.862821 -2.522339 12.756386 -5.689261 -2.291390 6.104929 -33.076057 67.391429 67.594302 14.104578 6.005143 -9.914582 6.198608 2.280115 -0.696543 -7.227917 -6.644219 2.894846 -35.005628 -75.262793 -67.246438 -4.861621 -31.349477 12.367940 4.808993 6.598967 18.195823 -46.001374 -39.677257 94.653749 61.192354 103.831336 -2.002473 -13.637613 4.177141 0.094799 -0.441538 0.045682 23.603189 -39.814893 -46.345993 71.114356 36.037934 95.638460 -9.920914 -9.086720 -5.537921 0.135823 0.497466 0.061248
-20.177798 51.283686 -15.309452 51.303856 -30.834121 -1.129721 -5.827673 14.967456 -0.392007 -3.304020 8.576432 0.189838 -4.137241 10.721132 0.159350 -3.304020 8.576432 0.189838 0.163499 18.802244 -2.346001 0.707561 -5.862129 -2.522744 12.757880 -5.691534 -2.294816 6.102450 -33.076066 67.390049 67.596063 14.110002 6.007091 -9.909975 6.199756 2.280303 -0.690718 -7.235169 -6.650517 2.896731 -35.007874 -75.266490 -67.237753 -4.856616 -31.351089 12.360229 4.812500 6.591542 18.189433 -45.994607 -39.672805 94.644224 61.186055 103.822306 -2.004575 -13.639749 4.173719 0.095561 -0.439409 0.046343 23.599102 -39.814242 -46.340080 71.118865 36.030622 95.637365 -9.931332 -9.085201 -5.535112 0.133061 0.495161 0.061194
-20.176732 51.284770 -15.310014 51.301708 -30.839150 -1.131164 -5.828170 14.970134 -0.390270 -3.304249 8.577926 0.190586 -4.137514 10.723005 0.160268 -3.304249 8.577926 0.190586 0.166195 18.803982 -2.347988 0.710877 -5.860101 -2.525503 12.758985 -5.695001 -2.299347 6.107868 -33.076802 67.389836 67.594147 14.116474 6.005788 -9.905413 6.199913 2.278545 -0.684466 -7.243732 -6.656754 2.887559 -35.005786 -75.269229 -67.230418 -4.850362 -31.339553 12.353717 4.818656 6.587225 18.183949 -45.989785 -39.667242 94.638522 61.181372 103.814281 -2.002102 -13.638318 4.174316 0.093645 -0.440091 0.044453 23.595500 -39.814218 -46.334408 71.125738 36.023900 95.640347 -9.939219 -9.083602 -5.534161 0.132356 0.491666 0.060678
-20.175451 51.285707 -15.310790 51.300175 -30.843540 -1.132055 -5.828988 14.971946 -0.389562 -3.304765 8.579034 0.190681 -4.138161 10.724391 0.160365 -3.304765 8.579034 0.190681 0.168270 18.806703 -2.349991 0.713540 -5.856983 -2.528145 12.762742 -5.697917 -2.301809 6.114599 -33.078734 67.390803 67.587820 14.122645 6.000810 -9.902847 6.202814 2.275498 -0.676563 -7.250319 -6.659952 2.886024 -35.001979 -75.276395 -67.226358 -4.843259 -31.333792 12.349942 4.824784 6.584817 18.180411 -45.985775 -39.663885 94.636160 61.176724 103.809187 -1.999933 -13.637033 4.176269 0.091546 -0.441786 0.042459 23.591728 -39.814067 -46.329320 71.132203 36.017655 95.643151 -9.947669 -9.083657 -5.533550 0.134467 0.489087 0.060382
-20.173913 51.286330 -15.312116 51.301261 -30.845883 -1.131244 -5.831608 14.972606 -0.390325 -3.305350 8.579778 0.190248 -4.138906 10.725317 0.159801 -3.305350 8.579778 0.190248 0.167820 18.809033 -2.351028 0.713304 -5.854357 -2.529172 12.768093 -5.701388 -2.303542 6.119231 -33.082606 67.394934 67.577350 14.128229 5.993819 -9.901197 6.208130 2.274067 -0.667714 -7.255343 -6.660626 2.896605 -34.999873 -75.288010 -67.225303 -4.835913 -31.339146 12.349469 4.828579 6.583236 18.179467 -45.981782 -39.665596 94.635012 61.172009 103.804557 -1.998378 -13.638589 4.179171 0.088909 -0.442344 0.041200 23.589666 -39.813923 -46.328088 71.136565 36.011237 95.642994 -9.957083 -9.083307 -5.530512 0.138355 0.486681 0.059969
-20.172344 51.286732 -15.313510 51.302331 -30.847244 -1.130044 -5.834287 14.974013 -0.391568 -3.305641 8.580804 0.189935 -4.139281 10.726596 0.159393 -3.305641 8.580804 0.189935 0.167125 18.810479 -2.351818 0.712751 -5.852729 -2.529869 12.774978 -5.707616 -2.307355 6.121336 -33.085824 67.402848 67.565888 14.133984 5.984806 -9.898234 6.212272 2.275486 -0.658865 -7.261325 -6.660512 2.905377 -34.998334 -75.299430 -67.226888 -4.827413 -31.343235 12.350994 4.829696 6.580846 18.179867 -45.977943 -39.667636 94.633350 61.167626 103.797822 -1.995888 -13.641190 4.184045 0.084277 -0.442294 0.039677 23.589832 -39.814706 -46.329548 71.141232 36.004518 95.643504 -9.964759 -9.081475 -5.525002 0.140515 0.482796 0.058358
